<svg width="41" height="40" viewBox="0 0 41 40" fill="none" xmlns="http://www.w3.org/2000/svg">
<g id="icon / outlined / other / other / briefcase">
<path id="Vector" d="M33.8333 11.6667H7.16665C5.3257 11.6667 3.83331 13.1591 3.83331 15V31.6667C3.83331 33.5076 5.3257 35 7.16665 35H33.8333C35.6743 35 37.1666 33.5076 37.1666 31.6667V15C37.1666 13.1591 35.6743 11.6667 33.8333 11.6667Z" stroke="#0C4061" stroke-width="2" stroke-linecap="round" stroke-linejoin="round"/>
<path id="Vector_2" d="M27.1666 35V8.33333C27.1666 7.44928 26.8155 6.60143 26.1903 5.97631C25.5652 5.35119 24.7174 5 23.8333 5H17.1666C16.2826 5 15.4347 5.35119 14.8096 5.97631C14.1845 6.60143 13.8333 7.44928 13.8333 8.33333V35" stroke="#0C4061" stroke-width="2" stroke-linecap="round" stroke-linejoin="round"/>
</g>
</svg>
